<?xml version="1.0" encoding="UTF-8"?>
<!DOCTYPE svg PUBLIC "-//W3C//DTD SVG 1.0//EN" "http://www.w3.org/TR/2001/REC-SVG-20010904/DTD/svg10.dtd">
<!-- Creator: CorelDRAW -->
<svg xmlns="http://www.w3.org/2000/svg" xml:space="preserve" width="19.0894mm" height="16.933mm" version="1.0" shape-rendering="geometricPrecision" text-rendering="geometricPrecision" image-rendering="optimizeQuality" fill-rule="evenodd" clip-rule="evenodd"
viewBox="0 0 2634.85 2337.21"
 xmlns:xlink="http://www.w3.org/1999/xlink"
 xmlns:xodm="http://www.corel.com/coreldraw/odm/2003">
 <g id="Camada_x0020_1">
  <metadata id="CorelCorpID_0Corel-Layer"/>
  <path fill="#A57E4A" d="M649.73 1423.68c-29.55,7.01 -91.57,4.49 -123.53,0.08l-35.39 -38.83c-0.84,-1.46 -3.35,-6.8 -3.92,-7.94 -0.41,-0.8 -1.61,-1.85 -1.93,-3.85 -0.26,-1.95 -0.92,-2.71 -1.84,-3.75l-19.02 48.12c-51.98,17.98 -135.16,9 -255.9,61.67 -50.71,22.1 -178.04,80.87 -199.09,117.13 23.27,-17.85 143.81,-60.65 186.21,-70.26 85.66,-19.46 145.83,-25.82 237.09,-27.78 -6.06,44.67 -230.73,635.77 -259.53,685.65 -62.6,108.36 -110.64,98.34 -157.07,117.21 -21.49,8.74 -14.64,-10.66 -15.14,27.22 1.34,0.72 3.46,-0.07 4.22,1.61l14.16 3.51c7.19,0.9 21.57,0.72 29.37,0.79 19.94,0.17 39.93,0.5 59.89,0.5l339.34 -1.93c14.62,-2.73 5.74,-0.03 13.87,-4.47 -0.41,-52.91 -11.57,-5.16 -104.27,-46.09 -134.82,-59.48 -63.89,-235.09 -30.79,-333.06 26.02,-77.03 55.17,-149.28 82,-222.65l81.93 -223.23c230.34,-7.77 560.38,202.4 707.68,296.37 39.72,25.38 275.1,191.98 289.11,212.24 6.49,9.34 111.46,227.14 -3.38,276.99 -17.09,7.43 -30.57,9.52 -49.21,11.37 -38.56,3.77 -36.33,-5.58 -36.15,28.05 23.95,15.18 246.21,6.21 291.83,6.34 101.48,0.18 202.98,-0.19 304.45,-0.15 135.96,0.03 450.98,18.21 538.48,-66.02 -131.72,11.15 -175.96,23.92 -310.17,-7.63 -152.19,-35.74 -326.81,-142.13 -447.7,-238.66l-392.58 -293.91c-68.07,-44.94 -136.91,-90.16 -213.25,-132.89 -98.39,-55.05 -380.84,-185.29 -519.77,-171.73zm-166.61 -54.29c0.91,1.05 1.57,1.81 1.84,3.75 0.32,2 1.52,3.05 1.93,3.85 0.57,1.13 3.08,6.47 3.92,7.94l35.39 38.83c31.97,4.4 93.98,6.93 123.53,-0.08l-125.71 -8.47 390.11 -1061.29c20.81,40.12 33.46,94.47 50.3,138.7 18.55,48.79 34.11,97.07 51.93,145.45 35.45,96.61 67.61,195.97 102.02,291.37 35.28,97.78 72.02,191.48 103.48,285.47 17.16,51.28 34.13,95.79 50.67,146.09 7.78,23.75 16.19,46.83 24.69,70.85l31.03 73.31 62.91 -13.21c2.03,-44.25 13.73,0.22 12.92,-58.63 40.36,-9.73 29.62,-13.69 55.31,-51.9 28.6,-42.64 -17.5,3.82 10.46,-14.22 -11.83,-50.17 -41.77,-124.96 -59.9,-173.25l-177.97 -514.32c-63.22,-185.92 -148.42,-408.88 -206.41,-593.89 -6.93,-22.19 -20.57,-70.01 -34.71,-85.74 -21.56,45.71 -45.29,117.89 -63.09,169.62 -19.54,56.78 -43.8,113.51 -63.11,169.95 -40.01,116.78 -84.96,228.24 -127.85,343.37l-253.67 686.45zm1170.45 -156.03l0.14 638.48c47.78,22.43 152.75,120.97 197.75,141.97 2.62,-68.79 -7.01,-423.05 5.49,-453.46 30.53,-22.68 306.89,-12.57 361.81,-2.07 53.73,10.23 95.11,31.29 124.94,64.86 59.74,67.33 23.23,121.68 68.9,121.63 9.76,-21.77 7.48,-390.44 2.33,-437.5 -53.71,-3.92 -4.86,42.35 -67.88,109.86 -31.98,34.23 -56.37,55.02 -118.16,65.74 -60.43,10.55 -307.14,15.1 -365.32,5.04l-9.18 -21.79c-11.15,-13.22 -10.81,-318.93 -13.11,-365.47l-8.27 125.23c-40.57,-10.26 -15.46,-20.57 -47.04,-35.82 -17.96,-8.68 -3.51,-10.57 -33.1,2.11 -22.73,9.79 3.2,6.21 -32.86,9.41 -60.28,5.34 -42.36,8.28 -51.88,30.03l-7.29 -49.01c-0.17,9.22 0.4,22.55 -0.95,31.39 -6.82,44.94 7.8,-31.3 -2.51,10.28 -0.32,1.21 -1.6,5.42 -1.81,4.6 -0.29,-0.79 -1.13,3.09 -2,4.49zm0 0c0.87,-1.39 1.71,-5.27 2,-4.49 0.21,0.83 1.49,-3.38 1.81,-4.6 10.31,-41.59 -4.31,34.66 2.51,-10.28 1.35,-8.83 0.79,-22.17 0.95,-31.39l7.29 49.01c9.52,-21.75 -8.39,-24.69 51.88,-30.03 36.07,-3.2 10.13,0.37 32.86,-9.41 29.59,-12.68 15.14,-10.79 33.1,-2.11 31.58,15.25 6.47,25.56 47.04,35.82l8.27 -125.23c2.31,46.54 1.96,352.24 13.11,365.47l9.44 -681.96c30.34,-16.33 443.63,-2.87 497.6,8.54 122.73,25.95 219.5,98.52 240.65,219.79 0.5,2.76 3.96,24.97 4.04,25.16 9.97,26.06 -9.21,13.66 21.38,17.58 9.79,-18.43 6.61,-137.02 6.46,-163.49 -0.29,-45.96 3.46,-122.87 -2.77,-164.9l-1158.21 -0.37 -0.79 30.49c123.6,14.62 174.58,16.49 180.72,148.59 5.04,108.7 -4.78,219.95 0.65,327.81zm-325.34 291.79l35.32 116.99c10.66,34.89 22.8,33.5 81.88,73.6 33.33,22.64 56.94,41.45 89.84,65.44l94.53 66.11 -159.97 -460.1c-27.96,18.04 18.14,-28.42 -10.46,14.22 -25.69,38.21 -14.95,42.17 -55.31,51.9 0.81,58.85 -10.89,14.38 -12.92,58.63l-62.91 13.21z"/>
 </g>
</svg>
